# xmcd
#
# Track frame offsets:
#	150
#	14805
#	28717
#	41349
#	57786
#	74143
#	88851
#	101183
#	117322
#	128280
#	142305
#	157432
#	169606
#	184837
#
# Disc length: 2687 seconds
#
# Revision: 0
# Processed by: cddbd v1.5.2PL0 Copyright (c) Steve Scherf et al.
# Submitted via: FairStars CD Ripper 1.01
#
DISCID=d20a7d0e
DTITLE=Paul Costa - Restoration
DYEAR=2006
DGENRE=Country
TTITLE0=Love Is Not A Game
TTITLE1=Rhythm Of The Rain
TTITLE2=Come A Little Bit Closer
TTITLE3=Lovers
TTITLE4=Paul Costa (duet with Aleyce Simmons) - The Way You Make Me Feel
TTITLE5=Is This The Beginning Of The End
TTITLE6=A Lover's Question
TTITLE7=Reason To Believe
TTITLE8=I Ain't Never
TTITLE9=We've Got A Good Fire Going
TTITLE10=I'm Bringin' Home Good News
TTITLE11=Guess Things Happen That Way
TTITLE12=Let's Take A Look At My Heart
TTITLE13=Moreton Bay
EXTD=
EXTT0=
EXTT1=
EXTT2=
EXTT3=
EXTT4=
EXTT5=
EXTT6=
EXTT7=
EXTT8=
EXTT9=
EXTT10=
EXTT11=
EXTT12=
EXTT13=Bonus Track
PLAYORDER=
